<?xml version="1.0" encoding="UTF-8" standalone="no"?>
<svg
   xmlns:dc="http://purl.org/dc/elements/1.1/"
   xmlns:cc="http://creativecommons.org/ns#"
   xmlns:rdf="http://www.w3.org/1999/02/22-rdf-syntax-ns#"
   xmlns:svg="http://www.w3.org/2000/svg"
   xmlns="http://www.w3.org/2000/svg"
   version="1.1"
   x="0px"
   y="0px"
   width="43.594124"
   height="43.59441"
   viewBox="0 0 43.594124 43.594412"
   enable-background="new 0 0 500 152.428"
   xml:space="preserve"
   id="svg4200"><metadata
     id="metadata4224"><rdf:RDF><cc:Work
         rdf:about=""><dc:format>image/svg+xml</dc:format><dc:type
           rdf:resource="http://purl.org/dc/dcmitype/StillImage" /><dc:title></dc:title></cc:Work></rdf:RDF></metadata><defs
     id="defs4222" /><g
     transform="scale(0.28600001,0.28600001)"
     style="fill:#29833b;fill-opacity:1"
     id="g4202"><path
       d="M 76.214,0 C 34.122,0 0,34.122 0,76.214 c 0,42.092 34.122,76.214 76.214,76.214 42.096,0 76.213,-34.122 76.213,-76.214 C 152.427,34.122 118.31,0 76.214,0 Z m -0.002,145.337 c -38.114,0 -69.123,-31.009 -69.123,-69.123 0,-38.116 31.009,-69.126 69.123,-69.126 38.115,0 69.126,31.01 69.126,69.126 0,38.114 -31.011,69.123 -69.126,69.123 z"
       id="path4204"
       style="fill:#29833b;fill-opacity:1" /><path
       d="M 107.317,22.572 C 94.583,15.514 77.573,21.634 70.944,33.949 c -7.219,13.407 -5.24,33.286 4.238,42.542 6.719,6.563 16.03,6.753 26.922,0.548 l 3.506,6.164 c -7.033,4.006 -13.067,5.471 -18.135,5.471 -8.281,0 -13.984,-3.921 -17.247,-7.108 C 58.515,70.124 55.983,46.781 64.701,30.59 c 4.29,-7.971 10.743,-13.373 18.718,-15.981 -2.366,-0.271 -4.768,-0.43 -7.207,-0.43 -34.205,0 -62.032,27.825 -62.032,62.035 0,31.93 24.249,58.29 55.294,61.66 l 0,-30.421 7.091,0 0,30.786 c 12.028,-0.067 23.25,-3.586 32.743,-9.598 l -12.776,-15.149 2.906,-2.267 c 0.178,-0.139 18.042,-14.3 19.926,-31.845 l 7.047,0.754 c -1.729,16.128 -14.139,29.118 -19.818,34.288 l 8.499,10.081 c 14.108,-11.38 23.156,-28.797 23.156,-48.29 0,-22.875 -12.456,-42.883 -30.931,-53.641 z m 10.145,30.942 c -0.917,2.791 -3.926,4.304 -6.71,3.387 -2.788,-0.921 -4.307,-3.925 -3.385,-6.716 0.917,-2.788 3.925,-4.3 6.711,-3.383 2.788,0.92 4.305,3.924 3.384,6.712 z"
       id="path4206"
       style="fill:#29833b;fill-opacity:1" /></g></svg>